<?xml version="1.0" encoding="UTF-8"?>
<svg width="32" height="32" viewBox="0 0 32 32" fill="none" xmlns="http://www.w3.org/2000/svg">
  <!-- Background circle -->
  <circle cx="16" cy="16" r="14" fill="#4F46E5" stroke="white" stroke-width="2"/>
  <!-- Person icon -->
  <path d="M16 10C17.1046 10 18 10.8954 18 12C18 13.1046 17.1046 14 16 14C14.8954 14 14 13.1046 14 12C14 10.8954 14.8954 10 16 10ZM16 16C18.2091 16 20 17.7909 20 20V21C20 21.5523 19.5523 22 19 22H13C12.4477 22 12 21.5523 12 21V20C12 17.7909 13.7909 16 16 16Z" fill="white"/>
</svg> 