<svg width="48" height="48" viewBox="0 0 48 48" fill="none" xmlns="http://www.w3.org/2000/svg">
<rect x="1.5" y="1.5" width="45" height="45" rx="14.5" fill="#DCE5F9"/>
<rect x="1.5" y="1.5" width="45" height="45" rx="14.5" stroke="#364153" stroke-width="3"/>
<path d="M19.625 17.125C19.625 16.5505 19.7381 15.9816 19.958 15.4508C20.1779 14.92 20.5001 14.4377 20.9064 14.0314C21.3126 13.6252 21.7949 13.3029 22.3257 13.083C22.8565 12.8632 23.4254 12.75 24 12.75C24.5745 12.75 25.1434 12.8632 25.6742 13.083C26.205 13.3029 26.6873 13.6252 27.0936 14.0314C27.4998 14.4377 27.8221 14.92 28.0419 15.4508C28.2618 15.9816 28.375 16.5505 28.375 17.125C28.375 18.2853 27.914 19.3981 27.0936 20.2186C26.2731 21.0391 25.1603 21.5 24 21.5C22.8396 21.5 21.7268 21.0391 20.9064 20.2186C20.0859 19.3981 19.625 18.2853 19.625 17.125ZM14.625 22.75C15.4538 22.75 16.2486 22.4208 16.8347 21.8347C17.4207 21.2487 17.75 20.4538 17.75 19.625C17.75 18.7962 17.4207 18.0013 16.8347 17.4153C16.2486 16.8292 15.4538 16.5 14.625 16.5C13.7962 16.5 13.0013 16.8292 12.4153 17.4153C11.8292 18.0013 11.5 18.7962 11.5 19.625C11.5 20.4538 11.8292 21.2487 12.4153 21.8347C13.0013 22.4208 13.7962 22.75 14.625 22.75ZM36.5 19.625C36.5 20.4538 36.1707 21.2487 35.5847 21.8347C34.9986 22.4208 34.2038 22.75 33.375 22.75C32.5462 22.75 31.7513 22.4208 31.1653 21.8347C30.5792 21.2487 30.25 20.4538 30.25 19.625C30.25 18.7962 30.5792 18.0013 31.1653 17.4153C31.7513 16.8292 32.5462 16.5 33.375 16.5C34.2038 16.5 34.9986 16.8292 35.5847 17.4153C36.1707 18.0013 36.5 18.7962 36.5 19.625ZM22.125 24C20.4 24 19 25.4 19 27.125V30.25C19 31.5761 19.5268 32.8479 20.4644 33.7855C21.4021 34.7232 22.6739 35.25 24 35.25C25.326 35.25 26.5978 34.7232 27.5355 33.7855C28.4732 32.8479 29 31.5761 29 30.25V27.125C29 25.4 27.6 24 25.875 24H22.125ZM16.5 27.125C16.5 26.4025 16.635 25.7125 16.885 25.08L13.8075 25.905C13.0074 26.1195 12.3252 26.6428 11.9108 27.3601C11.4964 28.0773 11.3837 28.9297 11.5975 29.73L12.0825 31.5425C12.2525 32.1768 12.5457 32.7715 12.9456 33.2924C13.3454 33.8134 13.8439 34.2505 14.4127 34.5787C14.9815 34.907 15.6094 35.12 16.2605 35.2056C16.9116 35.2912 17.5732 35.2476 18.2075 35.0775L18.25 35.065C17.1195 33.7152 16.5 32.0107 16.5 30.25V27.125ZM31.5 30.25C31.5 32.0825 30.8425 33.7625 29.75 35.0675L29.79 35.0775C31.0706 35.4204 32.435 35.2406 33.5831 34.5777C34.7313 33.9148 35.5691 32.823 35.9125 31.5425L36.3975 29.73C36.6113 28.9297 36.4986 28.0773 36.0842 27.3601C35.6698 26.6428 34.9876 26.1195 34.1875 25.905L31.1175 25.08C31.365 25.715 31.5 26.405 31.5 27.125V30.25Z" fill="#364153"/>
</svg>
